# Blender v2.82 (sub 7) OBJ File: ''
# www.blender.org
mtllib untitled.mtl
o naturePack_075
v -3.955293 -2.220969 -3.220000
v -4.262713 -2.220969 -3.220000
v -4.034773 -2.220969 -3.415050
v -5.102713 -0.270969 -3.220000
v -3.422713 -2.220969 -3.220000
v -4.262713 -0.270969 -3.220000
v -5.102713 0.579031 -3.220000
v -5.942713 -0.270969 -3.220000
v -6.250138 -2.220969 -3.220000
v -6.782713 -2.220969 -3.220000
v -6.625767 -1.856630 -2.876280
v -6.625767 -1.856630 -2.666280
v -6.575239 -1.739332 -2.197000
v -6.575239 -1.739332 -1.857000
v -6.782713 -2.220969 -0.000000
v -5.942713 -0.270969 0.000000
v -4.262713 -0.270969 0.000000
v -3.422713 -2.220969 -0.000000
v -4.380663 -0.151619 -0.429676
v -4.380663 -0.151619 -0.709676
v -4.499713 -0.031149 -0.793197
v -4.499713 -0.031149 -1.063200
v -4.633263 0.103991 -1.063200
v -4.633263 0.103991 -0.793197
v -4.784923 0.257451 -0.693986
v -4.784923 0.257451 -0.443986
v -5.102713 0.579031 0.000000
v -6.484245 -1.528097 -1.857000
v -6.484245 -1.528097 -2.197000
v -6.438086 -1.420941 -2.522700
v -6.438086 -1.420941 -2.722700
v -6.497429 -1.558703 -2.722700
v -6.542686 -1.663764 -2.876280
v -6.542686 -1.663764 -2.666280
v -6.497429 -1.558703 -2.522700
v -4.535303 0.004861 -0.429676
v -4.535303 0.004861 -0.709676
v -4.686513 0.157881 -0.693986
v -4.686513 0.157881 -0.443986
v -5.942713 -2.220969 -3.220000
v -6.170648 -2.220969 -3.415050
vt -111.316002 126.772003
vt -99.212601 126.772003
vt -108.185997 134.451004
vt -66.141701 76.771698
vt -99.212601 0.000000
vt -111.316002 0.000000
vt 83.679901 -72.216301
vt 92.435898 15.213400
vt 75.387497 -72.216301
vt -132.677002 88.305901
vt -169.615005 8.579980
vt -157.804001 8.579980
vt -132.283005 0.000000
vt -99.212601 76.771698
vt -66.141701 110.236000
vt -33.070900 76.771698
vt -20.967501 0.000000
vt -0.000000 0.000000
vt -126.772003 0.000000
vt -113.238998 15.618300
vt -126.772003 83.591698
vt -104.972000 15.618300
vt -86.496002 20.646601
vt -73.110100 20.646601
vt 0.000000 0.000000
vt -0.000000 83.591698
vt 99.212601 76.771698
vt 33.070900 76.771698
vt 132.283005 -0.000000
vt 126.772003 -52.334499
vt 0.000000 31.257200
vt 0.000000 -52.334499
vt 126.772003 31.257200
vt 126.772003 -15.131600
vt 16.916401 -8.525220
vt 0.000000 -15.131600
vt 27.940001 -8.525220
vt 31.228201 -1.857230
vt 41.858200 -1.857230
vt 41.858200 5.623080
vt 126.772003 31.916901
vt 31.228201 5.623080
vt 27.322300 14.117300
vt 17.479799 14.117300
vt 0.000000 31.916901
vt 66.141701 110.236000
vt -126.772003 124.900002
vt -0.000000 77.851898
vt -0.000000 124.900002
vt -126.772003 77.851898
vt -73.110100 29.701700
vt -86.496002 29.701700
vt -99.318802 34.295200
vt -107.193001 34.295200
vt -107.193001 28.389700
vt -113.238998 23.886000
vt -99.318802 28.389700
vt -104.972000 23.886000
vt 16.916401 0.136194
vt 27.940001 0.136194
vt 27.322300 8.605530
vt 17.479799 8.605530
vt -33.070900 0.000000
vt 32.170502 111.501999
vt 57.297199 31.775999
vt 69.108200 31.775999
vt -33.070900 126.772003
vt -20.967501 126.772003
vt -24.097000 134.451004
vt -133.602997 -13.601200
vt -125.309998 -13.601200
vt -142.358994 73.828400
vn 0.0000 -0.7516 0.6596
vn -0.6547 -0.6765 0.3372
vn 0.0000 -1.0000 0.0000
vn -0.8657 -0.3729 0.3340
vn 0.8132 0.4785 -0.3314
vn -0.6261 -0.2697 -0.7316
vn 0.0000 0.0000 -1.0000
vn -0.9184 0.3956 -0.0000
vn 0.0000 -0.0000 1.0000
vn 0.9184 0.3956 0.0000
vn 0.7113 0.7029 0.0000
vn -0.7113 0.7029 0.0000
vn 0.7113 0.7029 -0.0001
vn 0.7113 0.7029 0.0002
vn 0.8656 -0.3729 0.3341
vn 0.6547 -0.6765 0.3372
vn 0.6261 -0.2697 -0.7316
vn -0.8132 0.4785 -0.3314
usemtl Green_Roof
s 1
f 1/1/1 2/2/2 3/3/3
f 4/4/4 2/5/2 1/6/1
f 3/7/5 4/8/5 1/9/5
f 4/10/4 3/11/6 2/12/2
f 4/4/7 5/13/7 1/6/7
f 5/13/7 4/4/7 6/14/7
f 4/4/7 7/15/7 6/14/7
f 4/4/7 8/16/7 7/15/7
f 9/17/7 8/16/7 4/4/7
f 8/16/7 9/17/7 10/18/7
f 10/19/8 11/20/8 8/21/8
f 10/19/8 12/22/8 11/20/8
f 10/19/8 13/23/8 12/22/8
f 10/19/8 14/24/8 13/23/8
f 15/25/8 14/24/8 10/19/8
f 14/24/8 15/25/8 16/26/8
f 15/25/9 17/27/9 16/28/9
f 17/27/9 15/25/9 18/29/9
f 5/30/10 17/31/10 18/32/10
f 17/31/10 5/30/10 6/33/10
f 6/34/11 19/35/11 17/36/11
f 19/35/11 6/34/11 20/37/11
f 20/37/11 6/34/11 21/38/11
f 21/38/11 6/34/11 22/39/11
f 22/39/11 6/34/11 23/40/11
f 7/41/11 23/40/11 6/34/11
f 7/41/11 24/42/11 23/40/11
f 7/41/11 25/43/11 24/42/11
f 7/41/11 26/44/11 25/43/11
f 27/45/11 26/44/11 7/41/11
f 26/44/11 27/45/11 17/36/11
f 16/28/9 17/27/9 27/46/9
f 7/47/12 16/48/12 27/49/12
f 16/48/12 7/47/12 8/50/12
f 8/21/8 28/51/8 16/26/8
f 28/51/8 8/21/8 29/52/8
f 29/52/8 8/21/8 13/23/8
f 13/23/8 8/21/8 30/53/8
f 30/53/8 8/21/8 31/54/8
f 31/54/8 8/21/8 32/55/8
f 32/55/8 8/21/8 33/56/8
f 33/56/8 8/21/8 11/20/8
f 12/22/8 35/57/8 34/58/8
f 12/22/8 13/23/8 35/57/8
f 35/57/8 13/23/8 30/53/8
f 32/55/8 34/58/8 35/57/8
f 34/58/8 32/55/8 33/56/8
f 14/24/8 16/26/8 28/51/8
f 26/44/11 17/36/11 36/59/11
f 36/59/11 17/36/11 19/35/11
f 20/37/11 21/38/11 37/60/11
f 24/42/11 37/60/11 21/38/11
f 24/42/11 25/43/11 37/60/11
f 38/61/13 37/60/11 25/43/11
f 39/62/14 37/60/11 38/61/13
f 37/60/11 39/62/14 36/59/11
f 26/44/11 36/59/11 39/62/14
f 4/4/15 9/17/1 40/63/16
f 4/64/15 40/65/16 41/66/17
f 40/67/16 9/68/1 41/69/3
f 41/70/18 9/71/18 4/72/18
usemtl Leafs
f 12/22/8 33/56/8 11/20/8
f 33/56/8 12/22/8 34/58/8
f 31/54/8 35/57/8 30/53/8
f 35/57/8 31/54/8 32/55/8
f 14/24/8 29/52/8 13/23/8
f 29/52/8 14/24/8 28/51/8
f 20/37/11 36/59/11 19/35/11
f 36/59/11 20/37/11 37/60/11
f 38/61/13 26/44/11 39/62/14
f 26/44/11 38/61/13 25/43/11
f 22/39/11 24/42/11 21/38/11
f 24/42/11 22/39/11 23/40/11
o naturePack_075.001
v -3.955293 -2.220969 -3.220000
v -4.262713 -2.220969 -3.220000
v -4.034773 -2.220969 -3.415050
v -5.102713 -0.270969 -3.220000
v -3.422713 -2.220969 -3.220000
v -4.262713 -0.270969 -3.220000
v -5.102713 0.579031 -3.220000
v -5.942713 -0.270969 -3.220000
v -6.250138 -2.220969 -3.220000
v -6.782713 -2.220969 -3.220000
v -6.625767 -1.856630 -2.876280
v -6.625767 -1.856630 -2.666280
v -6.575239 -1.739332 -2.197000
v -6.575239 -1.739332 -1.857000
v -6.782713 -2.220969 -0.000000
v -5.942713 -0.270969 0.000000
v -4.262713 -0.270969 0.000000
v -3.422713 -2.220969 -0.000000
v -4.380663 -0.151619 -0.429676
v -4.380663 -0.151619 -0.709676
v -4.499713 -0.031149 -0.793197
v -4.499713 -0.031149 -1.063200
v -4.633263 0.103991 -1.063200
v -4.633263 0.103991 -0.793197
v -4.784923 0.257451 -0.693986
v -4.784923 0.257451 -0.443986
v -5.102713 0.579031 0.000000
v -6.484245 -1.528097 -1.857000
v -6.484245 -1.528097 -2.197000
v -6.438086 -1.420941 -2.522700
v -6.438086 -1.420941 -2.722700
v -6.497429 -1.558703 -2.722700
v -6.542686 -1.663764 -2.876280
v -6.542686 -1.663764 -2.666280
v -6.497429 -1.558703 -2.522700
v -4.535303 0.004861 -0.429676
v -4.535303 0.004861 -0.709676
v -4.686513 0.157881 -0.693986
v -4.686513 0.157881 -0.443986
v -5.942713 -2.220969 -3.220000
v -6.170648 -2.220969 -3.415050
vt -111.316002 126.772003
vt -108.185997 134.451004
vt -99.212601 126.772003
vt -66.141701 76.771698
vt -111.316002 0.000000
vt -99.212601 0.000000
vt 83.679901 -72.216301
vt 75.387497 -72.216301
vt 92.435898 15.213400
vt -132.677002 88.305901
vt -157.804001 8.579980
vt -169.615005 8.579980
vt -132.283005 0.000000
vt -99.212601 76.771698
vt -66.141701 110.236000
vt -33.070900 76.771698
vt -20.967501 0.000000
vt -0.000000 0.000000
vt -126.772003 0.000000
vt -126.772003 83.591698
vt -113.238998 15.618300
vt -104.972000 15.618300
vt -86.496002 20.646601
vt -73.110100 20.646601
vt 0.000000 0.000000
vt -0.000000 83.591698
vt 33.070900 76.771698
vt 99.212601 76.771698
vt 132.283005 -0.000000
vt 126.772003 -52.334499
vt 0.000000 -52.334499
vt 0.000000 31.257200
vt 126.772003 31.257200
vt 126.772003 -15.131600
vt 0.000000 -15.131600
vt 16.916401 -8.525220
vt 27.940001 -8.525220
vt 31.228201 -1.857230
vt 41.858200 -1.857230
vt 41.858200 5.623080
vt 126.772003 31.916901
vt 31.228201 5.623080
vt 27.322300 14.117300
vt 17.479799 14.117300
vt 0.000000 31.916901
vt 66.141701 110.236000
vt -126.772003 124.900002
vt -0.000000 124.900002
vt -0.000000 77.851898
vt -126.772003 77.851898
vt -73.110100 29.701700
vt -86.496002 29.701700
vt -99.318802 34.295200
vt -107.193001 34.295200
vt -107.193001 28.389700
vt -113.238998 23.886000
vt -104.972000 23.886000
vt -99.318802 28.389700
vt 16.916401 0.136194
vt 27.940001 0.136194
vt 27.322300 8.605530
vt 17.479799 8.605530
vt -33.070900 0.000000
vt 32.170502 111.501999
vt 69.108200 31.775999
vt 57.297199 31.775999
vt -33.070900 126.772003
vt -24.097000 134.451004
vt -20.967501 126.772003
vt -133.602997 -13.601200
vt -142.358994 73.828400
vt -125.309998 -13.601200
vn 0.0000 0.7516 -0.6596
vn 0.0000 1.0000 0.0000
vn 0.6547 0.6765 -0.3372
vn 0.8657 0.3729 -0.3340
vn -0.8132 -0.4785 0.3314
vn 0.6261 0.2697 0.7316
vn 0.0000 -0.0000 1.0000
vn 0.9184 -0.3956 0.0000
vn 0.0000 0.0000 -1.0000
vn -0.9184 -0.3956 -0.0000
vn -0.7113 -0.7029 -0.0000
vn 0.7113 -0.7029 -0.0000
vn -0.7112 -0.7029 0.0011
vn -0.7111 -0.7031 -0.0011
vn -0.8656 0.3729 -0.3341
vn -0.6547 0.6765 -0.3372
vn -0.6261 0.2697 0.7316
vn 0.8132 -0.4785 0.3314
usemtl Green_Roof
s 1
f 42/73/19 44/74/20 43/75/21
f 45/76/22 42/77/19 43/78/21
f 44/79/23 42/80/23 45/81/23
f 45/82/22 43/83/21 44/84/24
f 45/76/25 42/77/25 46/85/25
f 46/85/25 47/86/25 45/76/25
f 45/76/25 47/86/25 48/87/25
f 45/76/25 48/87/25 49/88/25
f 50/89/25 45/76/25 49/88/25
f 49/88/25 51/90/25 50/89/25
f 51/91/26 49/92/26 52/93/26
f 51/91/26 52/93/26 53/94/26
f 51/91/26 53/94/26 54/95/26
f 51/91/26 54/95/26 55/96/26
f 56/97/26 51/91/26 55/96/26
f 55/96/26 57/98/26 56/97/26
f 56/97/27 57/99/27 58/100/27
f 58/100/27 59/101/27 56/97/27
f 46/102/28 59/103/28 58/104/28
f 58/104/28 47/105/28 46/102/28
f 47/106/29 58/107/29 60/108/29
f 60/108/29 61/109/29 47/106/29
f 61/109/29 62/110/29 47/106/29
f 62/110/29 63/111/29 47/106/29
f 63/111/29 64/112/29 47/106/29
f 48/113/29 47/106/29 64/112/29
f 48/113/29 64/112/29 65/114/29
f 48/113/29 65/114/29 66/115/29
f 48/113/29 66/115/29 67/116/29
f 68/117/29 48/113/29 67/116/29
f 67/116/29 58/107/29 68/117/29
f 57/99/27 68/118/27 58/100/27
f 48/119/30 68/120/30 57/121/30
f 57/121/30 49/122/30 48/119/30
f 49/92/26 57/98/26 69/123/26
f 69/123/26 70/124/26 49/92/26
f 70/124/26 54/95/26 49/92/26
f 54/95/26 71/125/26 49/92/26
f 71/125/26 72/126/26 49/92/26
f 72/126/26 73/127/26 49/92/26
f 73/127/26 74/128/26 49/92/26
f 74/128/26 52/93/26 49/92/26
f 53/94/26 75/129/26 76/130/26
f 53/94/26 76/130/26 54/95/26
f 76/130/26 71/125/26 54/95/26
f 73/127/26 76/130/26 75/129/26
f 75/129/26 74/128/26 73/127/26
f 55/96/26 69/123/26 57/98/26
f 67/116/29 77/131/29 58/107/29
f 77/131/29 60/108/29 58/107/29
f 61/109/29 78/132/29 62/110/29
f 65/114/29 62/110/29 78/132/29
f 65/114/29 78/132/29 66/115/29
f 79/133/31 66/115/29 78/132/29
f 80/134/32 79/133/31 78/132/29
f 78/132/29 77/131/29 80/134/32
f 67/116/29 80/134/32 77/131/29
f 45/76/33 81/135/34 50/89/19
f 45/136/33 82/137/35 81/138/34
f 81/139/34 82/140/20 50/141/19
f 82/142/36 45/143/36 50/144/36
usemtl Leafs
f 53/94/26 52/93/26 74/128/26
f 74/128/26 75/129/26 53/94/26
f 72/126/26 71/125/26 76/130/26
f 76/130/26 73/127/26 72/126/26
f 55/96/26 54/95/26 70/124/26
f 70/124/26 69/123/26 55/96/26
f 61/109/29 60/108/29 77/131/29
f 77/131/29 78/132/29 61/109/29
f 79/133/31 80/134/32 67/116/29
f 67/116/29 66/115/29 79/133/31
f 63/111/29 62/110/29 65/114/29
f 65/114/29 64/112/29 63/111/29
